<svg viewBox="0 0 40 40" fill="none" xmlns="http://www.w3.org/2000/svg">
  <rect width="40" height="40" rx="8" fill="#1C1C28"/>
  <g transform="translate(5, 5) scale(0.15)">
    <path d="M57.7007 99.9146L116.94 159.158L154.381 121.714C160.964 115.131 171.734 115.131 178.317 121.714C184.899 128.297 184.899 139.068 178.317 145.651L128.908 195.063C122.326 201.646 111.555 201.646 104.973 195.063L34.0221 123.937V166.339C34.0221 175.572 26.4997 183.351 17.0111 183.351C7.52258 183.351 0 175.828 0 166.339V34.003C0 24.5138 7.52258 16.9908 17.0111 16.9908C26.4997 16.9908 34.0221 24.5138 34.0221 34.003V76.0633L105.143 4.93695C111.726 -1.64565 122.496 -1.64565 129.079 4.93695L178.488 54.3492C185.07 60.9318 185.07 71.7034 178.488 78.286C171.905 84.8686 161.135 84.8686 154.552 78.286L117.111 40.8421L57.7007 100.085V99.9146ZM117.111 82.9024C107.622 82.9024 100.1 90.4254 100.1 99.9146C100.1 109.404 107.622 116.927 117.111 116.927C126.6 116.927 134.122 109.404 134.122 99.9146C133.951 90.4254 126.429 82.9024 117.111 82.9024Z" fill="#00B47D"/>
  </g>
</svg>
